<svg width="80" height="20" viewBox="0 0 80 20" fill="none" xmlns="http://www.w3.org/2000/svg">
<path d="M79.1476 16.5857C79.235 16.5857 79.3224 16.6078 79.4098 16.674C79.4972 16.7403 79.6065 16.8065 79.6939 16.917C79.7813 17.0274 79.8468 17.182 79.9124 17.3366C79.9561 17.5133 79.9998 17.712 79.9998 17.9108C79.9998 18.3746 79.8687 18.7279 79.6283 18.993C79.3879 19.258 79.0602 19.3905 78.645 19.3905C78.3609 19.3905 78.1205 19.3242 77.902 19.2138C77.6835 19.1034 77.5305 18.9267 77.3994 18.7059C77.2902 18.485 77.2246 18.22 77.2246 17.9108C77.2246 17.712 77.2465 17.5353 77.2902 17.3808C77.3339 17.2262 77.3994 17.0936 77.4868 16.9832C77.5742 16.8728 77.6616 16.7845 77.7491 16.7182C77.8365 16.6519 77.9239 16.6299 78.0113 16.6299C78.0987 16.6299 78.1642 16.6519 78.2079 16.7182C78.2516 16.7845 78.2954 16.8728 78.2954 16.9611C78.2954 17.0274 78.2735 17.0716 78.2516 17.1157C78.2298 17.1599 78.1861 17.2041 78.1205 17.2482C77.9894 17.3366 77.902 17.4249 77.8365 17.5353C77.7709 17.6458 77.7491 17.7562 77.7491 17.9108C77.7491 18.1316 77.8365 18.3083 77.9894 18.4408C78.1424 18.5733 78.3609 18.6396 78.6231 18.6396C78.7542 18.6396 78.8635 18.6175 78.9728 18.5954C79.082 18.5513 79.1694 18.5071 79.235 18.4408C79.3005 18.3746 79.3661 18.2862 79.4098 18.1979C79.4535 18.1096 79.4754 17.9991 79.4754 17.8887C79.4754 17.7341 79.4535 17.6016 79.3879 17.5133C79.3224 17.4028 79.235 17.3145 79.1039 17.2262C79.0383 17.182 78.9728 17.1378 78.9291 17.0716C78.8854 17.0053 78.8635 16.9611 78.8635 16.8728C78.8635 16.7845 78.8854 16.6961 78.9509 16.6519C79.0165 16.6299 79.082 16.5857 79.1476 16.5857Z" fill="#E74040"/>
<path d="M78.6231 13.1404C78.8198 13.1404 79.0165 13.1846 79.1694 13.2509C79.3442 13.3171 79.4754 13.4275 79.6065 13.5601C79.7376 13.6926 79.825 13.8472 79.8905 14.0238C79.9561 14.2005 79.978 14.3993 79.978 14.6422C79.978 14.8631 79.9343 15.0618 79.8687 15.2606C79.8031 15.4373 79.7157 15.5919 79.5846 15.7244C79.4535 15.8569 79.3224 15.9452 79.1476 16.0336C78.9728 16.0998 78.7979 16.144 78.6013 16.144C78.4046 16.144 78.2079 16.0998 78.0331 16.0336C77.8583 15.9673 77.7272 15.8569 77.5961 15.7465C77.465 15.614 77.3776 15.4594 77.312 15.2827C77.2465 15.106 77.2246 14.9072 77.2246 14.6643C77.2246 14.4435 77.2465 14.2447 77.3339 14.0459C77.3994 13.8692 77.4868 13.7147 77.6179 13.5821C77.7491 13.4496 77.8802 13.3613 78.055 13.273C78.2298 13.1625 78.4046 13.1404 78.6231 13.1404ZM78.6231 13.8913C78.3391 13.8913 78.1424 13.9576 77.9894 14.0901C77.8365 14.2226 77.7491 14.3993 77.7491 14.6201C77.7491 14.7747 77.7928 14.8852 77.8583 14.9956C77.9239 15.106 78.0331 15.1943 78.1642 15.2606C78.2954 15.3269 78.4483 15.3489 78.6231 15.3489C78.7979 15.3489 78.9509 15.3269 79.082 15.2606C79.2131 15.1943 79.3224 15.1281 79.388 15.0177C79.4535 14.9072 79.4972 14.7747 79.4972 14.6201C79.4972 14.3993 79.4098 14.2226 79.2568 14.0901C79.1039 13.9576 78.8854 13.8913 78.6231 13.8913Z" fill="#E74040"/>
<path d="M78.667 10.0485H79.5629C79.6941 10.0485 79.8033 10.0927 79.8907 10.159C79.9563 10.2252 80 10.3135 80 10.4461C80 10.5565 79.9563 10.6448 79.8907 10.7111C79.8252 10.7773 79.7159 10.8215 79.5629 10.8215H78.4922C78.3174 10.8215 78.1863 10.8215 78.0989 10.8436C78.0115 10.8657 77.924 10.8878 77.8585 10.954C77.7929 11.0203 77.7711 11.1086 77.7711 11.219C77.7711 11.462 77.8366 11.6166 77.9896 11.7049C78.1426 11.7712 78.3611 11.8153 78.6452 11.8153H79.5629C79.6941 11.8153 79.8033 11.8595 79.8907 11.9258C79.9781 11.992 80 12.0803 80 12.2129C80 12.3233 79.9563 12.4116 79.8907 12.5C79.8252 12.5662 79.7159 12.6104 79.5629 12.6104H77.64C77.5089 12.6104 77.4215 12.5883 77.3559 12.522C77.2903 12.4558 77.2466 12.3675 77.2466 12.257C77.2466 12.1466 77.2685 12.0803 77.334 11.992C77.3996 11.9258 77.487 11.8816 77.5963 11.8816H77.6618C77.5307 11.7491 77.4215 11.6166 77.3559 11.462C77.2903 11.3074 77.2466 11.1528 77.2466 10.9761C77.2466 10.7994 77.2903 10.6227 77.3559 10.4902C77.4215 10.3577 77.5307 10.2473 77.6618 10.159C77.5307 10.0264 77.4215 9.89393 77.3559 9.76142C77.2903 9.62891 77.2466 9.45223 77.2466 9.27555C77.2466 9.07679 77.2903 8.90011 77.3559 8.74551C77.4215 8.59092 77.5307 8.48049 77.6618 8.41424C77.7929 8.34798 77.9678 8.3259 78.23 8.3259H79.5411C79.6722 8.3259 79.7815 8.37007 79.8689 8.43632C79.9344 8.50258 79.9781 8.59092 79.9781 8.72343C79.9781 8.83385 79.9344 8.92219 79.8689 9.01053C79.8033 9.07679 79.6941 9.12096 79.5411 9.12096H78.4048C78.2518 9.12096 78.1426 9.12096 78.0552 9.14304C77.9678 9.16513 77.9022 9.18721 77.8366 9.25347C77.7711 9.31972 77.7492 9.40806 77.7492 9.51849C77.7492 9.60683 77.7711 9.71725 77.8366 9.80559C77.8803 9.89393 77.9678 9.96019 78.0552 10.0044C78.1863 10.0264 78.3829 10.0485 78.667 10.0485Z" fill="#E74040"/>
<path d="M73.8813 19.258C74.8347 19.258 75.6076 18.4768 75.6076 17.5133C75.6076 16.5497 74.8347 15.7686 73.8813 15.7686C72.9279 15.7686 72.155 16.5497 72.155 17.5133C72.155 18.4768 72.9279 19.258 73.8813 19.258Z" fill="#E74040"/>
<path d="M10.7074 15.4811C10.7074 16.2761 10.4889 16.9608 10.0737 17.535C9.65854 18.1092 9.02484 18.5288 8.21632 18.838C7.38594 19.1251 6.40261 19.2797 5.22261 19.2797C4.10816 19.2797 3.14667 19.1251 2.33815 18.7938C1.52963 18.4625 0.939632 18.0871 0.56815 17.6012C0.174815 17.1154 0 16.6516 0 16.1657C0 15.8565 0.131111 15.5694 0.371482 15.3486C0.611853 15.1277 0.91778 15.0173 1.28926 15.0173C1.61704 15.0173 1.87926 15.0835 2.05408 15.2381C2.22889 15.3927 2.40371 15.5915 2.55667 15.8565C2.88445 16.3645 3.25593 16.762 3.71482 17.0049C4.15186 17.27 4.76372 17.3804 5.55038 17.3804C6.18409 17.3804 6.68668 17.2479 7.08002 16.9829C7.47335 16.7178 7.69187 16.4307 7.69187 16.0995C7.69187 15.5915 7.47335 15.2161 7.05817 14.9731C6.64298 14.7302 5.96557 14.5093 5.00409 14.3106C3.93334 14.0676 3.05927 13.8026 2.38186 13.5376C1.70445 13.2726 1.15815 12.8971 0.764817 12.4554C0.349631 12.0137 0.152963 11.4616 0.152963 10.7991C0.152963 10.2248 0.349631 9.67272 0.721113 9.14268C1.0926 8.63473 1.63889 8.21511 2.38186 7.90592C3.10297 7.59673 3.9989 7.44214 5.02594 7.44214C5.83446 7.44214 6.55557 7.53048 7.21113 7.68507C7.86669 7.83967 8.39113 8.06052 8.82817 8.30345C9.26521 8.56847 9.59299 8.85558 9.81151 9.16477C10.03 9.47396 10.1393 9.80523 10.1393 10.0923C10.1393 10.4236 10.03 10.6886 9.7678 10.9095C9.50558 11.1303 9.1778 11.2187 8.74076 11.2187C8.41298 11.2187 8.15076 11.1303 7.93224 10.9537C7.71372 10.777 7.4515 10.534 7.16743 10.1807C6.92705 9.89357 6.64298 9.67272 6.33705 9.49604C6.00927 9.31936 5.57224 9.23102 5.02594 9.23102C4.45779 9.23102 3.9989 9.34145 3.62742 9.5623C3.25593 9.78315 3.05927 10.0703 3.05927 10.4015C3.05927 10.7107 3.19038 10.9537 3.47445 11.1524C3.75853 11.3512 4.13001 11.5058 4.5889 11.6383C5.04779 11.7708 5.70335 11.9254 6.51187 12.1021C7.47335 12.3229 8.28187 12.5879 8.89373 12.8971C9.50558 13.2063 9.96447 13.5597 10.2922 13.9793C10.5545 14.4873 10.7074 14.951 10.7074 15.4811Z" fill="white"/>
<path d="M22.2015 14.09H16.083C16.083 14.7526 16.2359 15.3268 16.52 15.8348C16.8041 16.3427 17.1756 16.7182 17.6344 16.9611C18.0933 17.2261 18.5959 17.3365 19.1641 17.3365C19.5356 17.3365 19.8852 17.2924 20.1911 17.204C20.497 17.1157 20.803 17.0053 21.087 16.8286C21.3711 16.6519 21.6333 16.4752 21.8956 16.2765C22.1359 16.0777 22.4637 15.8127 22.8352 15.4593C22.9882 15.3268 23.2285 15.2606 23.5126 15.2606C23.8404 15.2606 24.1026 15.3489 24.2993 15.5035C24.4959 15.6581 24.6052 15.901 24.6052 16.1881C24.6052 16.4531 24.4959 16.7623 24.2774 17.1157C24.0589 17.4691 23.7311 17.8003 23.2722 18.1316C22.8352 18.4629 22.267 18.7279 21.5896 18.9267C20.9122 19.1475 20.1474 19.2358 19.2515 19.2358C17.2411 19.2358 15.6896 18.7058 14.5752 17.6457C13.4607 16.5857 12.8926 15.1501 12.8926 13.3171C12.8926 12.4558 13.0237 11.6607 13.3078 10.9319C13.5918 10.2031 13.9852 9.56262 14.5096 9.05467C15.0341 8.54671 15.6896 8.1271 16.4544 7.83999C17.2193 7.55289 18.0715 7.42038 19.0111 7.42038C20.2348 7.42038 21.2837 7.66331 22.1578 8.1271C23.0319 8.61297 23.6874 9.23135 24.1245 9.98224C24.5615 10.7331 24.78 11.5061 24.78 12.3012C24.78 13.03 24.5615 13.4938 24.1026 13.7146C23.6437 13.9796 23.01 14.09 22.2015 14.09ZM16.083 12.4337H21.7426C21.677 11.4398 21.3711 10.711 20.8685 10.2031C20.3659 9.71722 19.7104 9.47428 18.9019 9.47428C18.1152 9.47428 17.4815 9.71722 16.9789 10.2252C16.4981 10.7331 16.1922 11.4619 16.083 12.4337Z" fill="white"/>
<path d="M53.3624 14.09H47.2438C47.2438 14.7526 47.3968 15.3268 47.6809 15.8348C47.965 16.3427 48.3364 16.7182 48.7953 16.9611C49.2542 17.2261 49.7568 17.3365 50.325 17.3365C50.6964 17.3365 51.0461 17.2924 51.352 17.204C51.6579 17.1157 51.9639 17.0053 52.2479 16.8286C52.532 16.6519 52.7942 16.4752 53.0564 16.2765C53.2968 16.0777 53.6246 15.8127 53.9961 15.4593C54.149 15.3268 54.3894 15.2606 54.6735 15.2606C55.0013 15.2606 55.2635 15.3489 55.4602 15.5035C55.6568 15.6581 55.7661 15.901 55.7661 16.1881C55.7661 16.4531 55.6568 16.7623 55.4383 17.1157C55.2198 17.4691 54.892 17.8003 54.4331 18.1316C53.9961 18.4629 53.4279 18.7279 52.7505 18.9267C52.0731 19.1475 51.3083 19.2358 50.4124 19.2358C48.402 19.2358 46.8505 18.7058 45.7361 17.6457C44.6216 16.5857 44.0535 15.1501 44.0535 13.3171C44.0535 12.4558 44.1846 11.6607 44.4687 10.9319C44.7527 10.2031 45.1461 9.56262 45.6705 9.05467C46.195 8.54671 46.8505 8.1271 47.6153 7.83999C48.3801 7.55289 49.2324 7.42038 50.172 7.42038C51.3957 7.42038 52.4446 7.66331 53.3187 8.1271C54.1927 8.61297 54.8483 9.23135 55.2853 9.98224C55.7224 10.7331 55.9409 11.5061 55.9409 12.3012C55.9409 13.03 55.7224 13.4938 55.2635 13.7146C54.8046 13.9796 54.1709 14.09 53.3624 14.09ZM47.2438 12.4337H52.9035C52.8379 11.4398 52.532 10.711 52.0294 10.2031C51.5268 9.71722 50.8713 9.47428 50.0627 9.47428C49.2761 9.47428 48.6424 9.71722 48.1398 10.2252C47.6372 10.7331 47.3531 11.4619 47.2438 12.4337Z" fill="white"/>
<path d="M61.5131 9.07678V9.43014C62.0594 8.76759 62.6713 8.25964 63.3268 7.95045C63.9824 7.64126 64.7253 7.48666 65.5776 7.48666C66.4079 7.48666 67.1291 7.66334 67.7846 7.99462C68.4402 8.32589 68.9209 8.78968 69.2487 9.40806C69.4454 9.76142 69.5983 10.1369 69.642 10.5565C69.7076 10.9761 69.7294 11.484 69.7294 12.1245V17.5133C69.7294 18.0875 69.5765 18.5292 69.2924 18.8384C69.0083 19.1255 68.6368 19.2801 68.178 19.2801C67.7191 19.2801 67.3257 19.1255 67.0417 18.8163C66.7576 18.5071 66.6046 18.0654 66.6046 17.5133V12.6766C66.6046 11.727 66.4517 10.9982 66.1676 10.4902C65.8835 9.98227 65.3154 9.73933 64.4631 9.73933C63.895 9.73933 63.3924 9.89393 62.9335 10.2031C62.4746 10.5123 62.1468 10.9319 61.9283 11.462C61.7753 11.9037 61.7098 12.6987 61.7098 13.8913V17.5353C61.7098 18.1316 61.5568 18.5733 61.2727 18.8604C60.9887 19.1475 60.5953 19.3021 60.1364 19.3021C59.6776 19.3021 59.3061 19.1475 59.022 18.8384C58.7379 18.5292 58.585 18.0875 58.585 17.5353V9.14304C58.585 8.59091 58.7161 8.1713 58.9783 7.90628C59.2405 7.64126 59.5902 7.48666 60.049 7.48666C60.3331 7.48666 60.5735 7.55292 60.792 7.66334C61.0105 7.77377 61.1853 7.97253 61.3164 8.21547C61.4476 8.4584 61.5131 8.74551 61.5131 9.07678Z" fill="white"/>
<path d="M41.9775 9.84975L37.4105 18.1095C36.9734 18.9046 36.5364 19.4126 36.0994 19.6334C35.6623 19.8543 35.1597 19.8101 34.5916 19.4788C34.2419 19.28 33.9142 18.8163 33.5645 18.0875C33.2368 17.3586 32.8653 16.5194 32.4719 15.5918C32.0786 14.6643 31.5323 13.6484 30.833 12.4999C30.1338 11.3515 29.1723 10.1369 27.9704 8.83384C27.4241 8.25963 26.9653 7.81793 26.5938 7.50874C26.2223 7.17747 25.7197 6.77994 25.086 6.29407C24.4523 5.8082 23.9934 5.43275 23.6656 5.14565C22.9227 4.50518 22.4856 3.93097 22.3327 3.42302C22.1797 2.91506 22.2671 2.40711 22.5512 1.87707C22.8353 1.36911 23.2286 1.05992 23.753 0.949499C24.2775 0.839074 24.8675 0.971584 25.5449 1.36911C26.0693 1.65622 26.7249 2.18626 27.4897 2.91506C28.2764 3.64387 29.1505 4.61561 30.1119 5.83028C31.0953 7.04496 32.0349 8.41423 32.9308 9.91601C33.8268 11.4178 34.6571 13.0521 35.3782 14.841L39.0494 8.19338C39.4427 7.50874 39.836 7.04496 40.2949 6.84619C40.732 6.64743 41.2127 6.6916 41.759 7.00079C42.3271 7.30998 42.5894 7.70751 42.5457 8.17129C42.5457 8.63508 42.349 9.1872 41.9775 9.84975Z" fill="white"/>
</svg>
